<svg width="88" height="80" viewBox="0 0 88 80" fill="none" xmlns="http://www.w3.org/2000/svg">
<g filter="url(#filter0_d_163_103)">
<path d="M20.2947 53.1558L20.208 63.4798C20.208 68.7697 16.8277 71.5 12.1473 71.5C7.72698 71.5 4 68.8551 4 63.4798L4.08667 53.1558H7.55363L7.46696 63.4798C7.46696 66.722 9.28711 68.4284 12.234 68.4284C15.0943 68.4284 16.7411 66.5514 16.7411 63.4798L16.8277 53.1558H20.2947Z" fill="#001689"/>
<path d="M31.6489 56.2274H25.8418V53.1558C31.1289 53.1558 35.6359 53.1558 41.0097 53.1558V56.2274H35.1159L35.0292 71.1588H31.5623L31.6489 56.2274Z" fill="#001689"/>
<path d="M62.4182 71.1588H58.2579L52.9708 65.1009H49.5905L49.5038 71.1588H46.0369L46.2102 53.1558C49.1571 53.1558 52.0174 53.1558 54.9643 53.1558C59.298 53.1558 61.5515 55.9714 61.5515 59.1283C61.5515 61.6027 60.3381 64.077 56.8711 64.7596L62.4182 70.9028V71.1588ZM49.6772 56.3127V62.1146H54.9643C57.2178 62.1146 58.1712 60.6641 58.1712 59.2136C58.1712 57.7632 57.2178 56.3127 55.051 56.3127H49.6772Z" fill="#001689"/>
<path d="M74.8992 60.5788L79.8396 53.1558H84V53.3264L76.546 63.7357L76.4593 71.1588H72.9924L73.0791 63.7357L66.0585 53.3264V53.1558H70.2188L74.8992 60.5788Z" fill="#001689"/>
<path d="M55.7443 14.6754L54.7909 17.9176L50.6306 32.1665C49.9372 34.4702 48.8104 36.3472 47.1636 37.7124C45.5168 39.0776 43.6967 39.7601 41.5298 39.7601C39.363 39.7601 37.8028 39.0776 37.0228 37.7124C36.156 36.3472 36.156 34.5555 36.7628 32.1665L42.5699 12.2864H35.2026L29.3955 32.1665C28.182 36.5179 28.4421 39.9308 30.1755 42.4051C31.909 44.8795 35.1159 46.074 39.623 46.074C40.5764 46.074 41.5298 45.9886 42.4832 45.9033C45.7768 45.4767 48.7237 44.3675 51.2373 42.4051C54.4442 39.9308 56.6977 36.5179 57.9112 32.1665L62.9383 14.6754H55.7443Z" fill="#071E8D"/>
<path d="M68.6588 12.1158L63.3717 0L51.064 12.1158H56.4377L54.7909 17.9177L50.7173 32.1665C50.0239 34.4702 48.8971 36.3473 47.2503 37.7124C45.6035 39.0776 43.7834 39.7601 41.6165 39.7601C41.6165 39.7601 40.4031 43.3437 42.5699 45.9033C45.8635 45.4767 48.8104 44.3675 51.324 42.4051C54.5309 39.9308 56.7844 36.5179 57.9979 32.1665L63.025 14.6754L63.805 12.1158H68.6588Z" fill="url(#paint0_linear_163_103)"/>
<path d="M37.5428 29.6921L42.6566 12.1157H35.2893L29.8289 30.9719" fill="#001689"/>
</g>
<defs>
<filter id="filter0_d_163_103" x="0" y="0" width="88" height="79.5" filterUnits="userSpaceOnUse" color-interpolation-filters="sRGB">
<feFlood flood-opacity="0" result="BackgroundImageFix"/>
<feColorMatrix in="SourceAlpha" type="matrix" values="0 0 0 0 0 0 0 0 0 0 0 0 0 0 0 0 0 0 127 0" result="hardAlpha"/>
<feOffset dy="4"/>
<feGaussianBlur stdDeviation="2"/>
<feComposite in2="hardAlpha" operator="out"/>
<feColorMatrix type="matrix" values="0 0 0 0 0 0 0 0 0 0 0 0 0 0 0 0 0 0 0.25 0"/>
<feBlend mode="normal" in2="BackgroundImageFix" result="effect1_dropShadow_163_103"/>
<feBlend mode="normal" in="SourceGraphic" in2="effect1_dropShadow_163_103" result="shape"/>
</filter>
<linearGradient id="paint0_linear_163_103" x1="71.6525" y1="-4.63854" x2="35.5378" y2="70.631" gradientUnits="userSpaceOnUse">
<stop offset="0.177" stop-color="#071E8D"/>
<stop offset="1" stop-color="#CCD0E7"/>
</linearGradient>
</defs>
</svg>
